# xmcd
#
# Track frame offsets:
#	150
#	16400
#	30370
#
# Disc length: 616 seconds
#
# Revision: 0
# Processed by: cddbd v1.5PL3 Copyright (c) Steve Scherf et al.
# Submitted via: dBpowerAMP V4.0
#
DISCID=15026603
DTITLE=Noa - Beautiful that way
DYEAR=2000
DGENRE=Blues
TTITLE0=Beautiful that way
TTITLE1=Long coat in the winter
TTITLE2=Don't let me go
EXTD=special album, the track 1 and 2 are taken from the album "blue touches blue"
EXTT0=
EXTT1=
EXTT2=
PLAYORDER=
